<svg stroke-linejoin="round" stroke-linecap="round" stroke="#000" fill-rule="evenodd" fill="#fff" viewBox="0 0 63.75 85" xmlns:xlink="http://www.w3.org/1999/xlink" xmlns="http://www.w3.org/2000/svg"><use y="2.5" x="1.875" xlink:href="#A"></use><symbol overflow="visible" id="A"><g stroke="none"><path fill="#ffa000" d="M39.399 28.895l-8.317 7.451-7.718-14.987 3.994-8.619c1.011-1.728 2.66-1.731 3.671 0l8.371 16.155z"></path><path fill="#f57f17" d="M31.082 36.346L.001 64.183l23.363-42.824z"></path><path fill="#ffca28" d="M48.496 17.506c1.486-1.375 3.022-.906 3.413 1.042L60 63.81 33.181 79.284c-.938.499-3.424.715-3.424.715s-2.268-.261-3.133-.723L0 64.181l48.496-46.675z"></path><path fill="#ffa000" d="M23.364 21.359L.001 64.183 10.407 1.594c.383-1.95 1.536-2.137 2.565-.417l10.392 20.181z"></path></g></symbol></svg>