<svg stroke-linejoin="round" stroke-linecap="round" stroke="#000" fill-rule="evenodd" fill="#fff" viewBox="0 0 63.75 85" xmlns:xlink="http://www.w3.org/1999/xlink" xmlns="http://www.w3.org/2000/svg"><use y="2.5" x="1.875" xlink:href="#A"></use><symbol overflow="visible" id="A"><g stroke="none"><path fill="#1572b6" d="M60 15H0l5 57.5L30 80l25-7.5L60 15"></path><path fill="#33a9dc" d="M51.739 52.5l.435-5 .652-7.5.652-7.5.652-7.5.435-5H30v55l15.179-4.554 5.134-1.54.67-7.701.67-7.701z"></path><path fill="#000" d="M22 0h-9v11h9V8h-6V3h6zm13 0v3h-5l5 5v3H25V8h5l-5-5V0zm13 0v3h-5l5 5v3H38V8h5l-5-5V0z"></path><path fill="#ebebeb" d="M24.933 65.98l-2.567-.77-8.214-2.464-.67-7.701-.221-2.545h8l.436 5.009 2.567.77L30 60v7.5zM11.522 32.5h8 2.5H30V25h-8.63-2.5-8z"></path><path d="M30 60l8.304-2.491.435-5.009.435-5H30V40h9.826l.652-7.5H30V25h11.13 8l-.652 7.5-.652 7.5-.652 7.5-.435 5-.221 2.545-.67 7.701-8.214 2.464L30 67.5V60z"></path><path fill="#ebebeb" d="M30 47.5h-6.674l-.652-7.5H30z"></path></g></symbol></svg>